<mxfile host="65bd71144e">
    <diagram id="EW9ChkyUzvkF7Ae6N6rX" name="第 1 页">
        <mxGraphModel dx="780" dy="444" grid="1" gridSize="10" guides="1" tooltips="1" connect="1" arrows="1" fold="1" page="1" pageScale="1" pageWidth="827" pageHeight="1169" background="#ffffff" math="0" shadow="0">
            <root>
                <mxCell id="0"/>
                <mxCell id="1" parent="0"/>
                <mxCell id="2" value="HTML" style="text;html=1;strokeColor=none;fillColor=none;align=center;verticalAlign=middle;whiteSpace=wrap;rounded=0;strokeWidth=4;fontSize=18;fontColor=#000000;" vertex="1" parent="1">
                    <mxGeometry x="80" y="50" width="60" height="30" as="geometry"/>
                </mxCell>
                <mxCell id="3" value="CSS" style="text;html=1;strokeColor=none;fillColor=none;align=center;verticalAlign=middle;whiteSpace=wrap;rounded=0;strokeWidth=4;fontSize=18;fontColor=#000000;" vertex="1" parent="1">
                    <mxGeometry x="70" y="180" width="60" height="30" as="geometry"/>
                </mxCell>
                <mxCell id="4" value="JS" style="text;html=1;strokeColor=none;fillColor=none;align=center;verticalAlign=middle;whiteSpace=wrap;rounded=0;strokeWidth=4;fontSize=18;fontColor=#000000;" vertex="1" parent="1">
                    <mxGeometry x="70" y="288" width="60" height="30" as="geometry"/>
                </mxCell>
                <mxCell id="5" value="超&lt;font color=&quot;#cc0000&quot;&gt;文本 &lt;/font&gt;&lt;font color=&quot;#0000cc&quot;&gt;标记&lt;/font&gt;语言" style="text;html=1;strokeColor=none;fillColor=none;align=center;verticalAlign=middle;whiteSpace=wrap;rounded=0;strokeWidth=4;fontSize=18;fontColor=#000000;" vertex="1" parent="1">
                    <mxGeometry x="180" y="50" width="160" height="30" as="geometry"/>
                </mxCell>
                <mxCell id="6" value="层叠样式表" style="text;html=1;strokeColor=none;fillColor=none;align=center;verticalAlign=middle;whiteSpace=wrap;rounded=0;strokeWidth=4;fontSize=18;fontColor=#000000;" vertex="1" parent="1">
                    <mxGeometry x="170" y="180" width="130" height="30" as="geometry"/>
                </mxCell>
                <mxCell id="7" value="Javascipt" style="text;html=1;strokeColor=none;fillColor=none;align=center;verticalAlign=middle;whiteSpace=wrap;rounded=0;strokeWidth=4;fontSize=18;fontColor=#000000;" vertex="1" parent="1">
                    <mxGeometry x="180" y="288" width="130" height="30" as="geometry"/>
                </mxCell>
                <mxCell id="8" value="p.style.color = '&lt;font color=&quot;#cc0000&quot;&gt;green&lt;/font&gt;'" style="text;html=1;strokeColor=none;fillColor=none;align=center;verticalAlign=middle;whiteSpace=wrap;rounded=0;strokeWidth=4;fontSize=18;fontColor=#000000;" vertex="1" parent="1">
                    <mxGeometry x="360" y="288" width="260" height="30" as="geometry"/>
                </mxCell>
                <mxCell id="9" value="&lt;font color=&quot;#0000cc&quot;&gt;p&amp;nbsp;&amp;nbsp;&lt;/font&gt; {&amp;nbsp; &amp;nbsp;color :&amp;nbsp; &amp;nbsp;&lt;font color=&quot;#cc0000&quot;&gt;red&amp;nbsp;&amp;nbsp;&lt;/font&gt; }" style="text;html=1;strokeColor=none;fillColor=none;align=center;verticalAlign=middle;whiteSpace=wrap;rounded=0;strokeWidth=4;fontSize=18;fontColor=#000000;" vertex="1" parent="1">
                    <mxGeometry x="385" y="180" width="196" height="30" as="geometry"/>
                </mxCell>
                <mxCell id="10" value="&lt;font color=&quot;#0000cc&quot;&gt;&amp;lt;p&amp;gt;&lt;/font&gt;&amp;nbsp;&lt;font color=&quot;#cc0000&quot;&gt;不拘一格降人才&lt;/font&gt;&amp;nbsp;&lt;font color=&quot;#0000cc&quot;&gt;&amp;lt;/p&amp;gt;&lt;/font&gt;" style="text;html=1;strokeColor=none;fillColor=none;align=center;verticalAlign=middle;whiteSpace=wrap;rounded=0;strokeWidth=4;fontSize=18;fontColor=#000000;" vertex="1" parent="1">
                    <mxGeometry x="360" y="45" width="250" height="40" as="geometry"/>
                </mxCell>
                <mxCell id="12" value="" style="edgeStyle=segmentEdgeStyle;endArrow=classic;html=1;curved=0;rounded=0;endSize=8;startSize=8;fontSize=18;fontColor=#CC0000;entryX=0.25;entryY=1;entryDx=0;entryDy=0;exitX=0.5;exitY=1;exitDx=0;exitDy=0;strokeColor=#0000CC;" edge="1" parent="1" source="5" target="10">
                    <mxGeometry width="50" height="50" relative="1" as="geometry">
                        <mxPoint x="270" y="118" as="sourcePoint"/>
                        <mxPoint x="320" y="68" as="targetPoint"/>
                        <Array as="points">
                            <mxPoint x="260" y="103"/>
                            <mxPoint x="423" y="103"/>
                        </Array>
                    </mxGeometry>
                </mxCell>
                <mxCell id="13" value="" style="edgeStyle=segmentEdgeStyle;endArrow=classic;html=1;curved=0;rounded=0;endSize=8;startSize=8;fontSize=18;fontColor=#CC0000;exitX=0.5;exitY=1;exitDx=0;exitDy=0;strokeColor=#CC0000;" edge="1" parent="1">
                    <mxGeometry width="50" height="50" relative="1" as="geometry">
                        <mxPoint x="222" y="74" as="sourcePoint"/>
                        <mxPoint x="486" y="77" as="targetPoint"/>
                        <Array as="points">
                            <mxPoint x="222" y="119"/>
                            <mxPoint x="486" y="119"/>
                            <mxPoint x="486" y="79"/>
                        </Array>
                    </mxGeometry>
                </mxCell>
                <mxCell id="14" value="选择器" style="text;strokeColor=none;fillColor=none;html=1;fontSize=13;fontStyle=1;verticalAlign=middle;align=center;strokeWidth=4;fontColor=#0000CC;" vertex="1" parent="1">
                    <mxGeometry x="364" y="234" width="100" height="26" as="geometry"/>
                </mxCell>
                <mxCell id="15" value="" style="endArrow=classic;html=1;strokeColor=#0000CC;fontSize=13;fontColor=#0000CC;" edge="1" parent="1" source="14">
                    <mxGeometry width="50" height="50" relative="1" as="geometry">
                        <mxPoint x="373" y="333" as="sourcePoint"/>
                        <mxPoint x="414" y="211" as="targetPoint"/>
                    </mxGeometry>
                </mxCell>
                <mxCell id="16" value="属性" style="text;strokeColor=none;fillColor=none;html=1;fontSize=13;fontStyle=1;verticalAlign=middle;align=center;strokeWidth=4;fontColor=#000000;" vertex="1" parent="1">
                    <mxGeometry x="423" y="236" width="100" height="26" as="geometry"/>
                </mxCell>
                <mxCell id="17" value="值" style="text;strokeColor=none;fillColor=none;html=1;fontSize=13;fontStyle=1;verticalAlign=middle;align=center;strokeWidth=4;fontColor=#CC0000;" vertex="1" parent="1">
                    <mxGeometry x="481" y="239" width="100" height="26" as="geometry"/>
                </mxCell>
                <mxCell id="18" value="" style="endArrow=classic;html=1;strokeColor=#000000;fontSize=13;fontColor=#000000;exitX=0.5;exitY=0;exitDx=0;exitDy=0;entryX=0.449;entryY=1.022;entryDx=0;entryDy=0;entryPerimeter=0;" edge="1" parent="1" source="16" target="9">
                    <mxGeometry width="50" height="50" relative="1" as="geometry">
                        <mxPoint x="373" y="322" as="sourcePoint"/>
                        <mxPoint x="423" y="272" as="targetPoint"/>
                    </mxGeometry>
                </mxCell>
                <mxCell id="19" value="" style="endArrow=classic;html=1;strokeColor=#CC0000;fontSize=13;fontColor=#000000;entryX=0.75;entryY=1;entryDx=0;entryDy=0;" edge="1" parent="1" target="9">
                    <mxGeometry width="50" height="50" relative="1" as="geometry">
                        <mxPoint x="532" y="237" as="sourcePoint"/>
                        <mxPoint x="483.0039999999999" y="220.65999999999997" as="targetPoint"/>
                    </mxGeometry>
                </mxCell>
                <mxCell id="20" value="通过JS修改页面内容" style="text;html=1;strokeColor=none;fillColor=none;align=center;verticalAlign=middle;whiteSpace=wrap;rounded=0;strokeWidth=4;fontSize=13;fontColor=#000000;" vertex="1" parent="1">
                    <mxGeometry x="380" y="350" width="220" height="30" as="geometry"/>
                </mxCell>
                <mxCell id="21" value="" style="endArrow=classic;html=1;strokeColor=#000000;fontSize=13;fontColor=#000000;exitX=0.5;exitY=0;exitDx=0;exitDy=0;entryX=0.5;entryY=1;entryDx=0;entryDy=0;" edge="1" parent="1" source="20" target="8">
                    <mxGeometry width="50" height="50" relative="1" as="geometry">
                        <mxPoint x="370" y="270" as="sourcePoint"/>
                        <mxPoint x="420" y="220" as="targetPoint"/>
                    </mxGeometry>
                </mxCell>
            </root>
        </mxGraphModel>
    </diagram>
</mxfile>